<svg width="394" height="112" viewBox="0 0 394 112" fill="none" xmlns="http://www.w3.org/2000/svg">
<g clip-path="url(#clip0_73_1049)">
<path d="M31.9313 2.67651V3.43918C31.9313 15.0567 31.9025 26.679 31.9505 38.2964C31.9649 41.2991 31.2118 43.9949 29.6769 46.5899C20.2659 62.5099 10.9028 78.4492 1.54453 94.3981C-2.83002 101.857 2.59979 111.095 11.3681 111.1C34.9964 111.114 58.6247 111.129 82.2482 111.086C87.0976 111.076 90.604 108.74 92.6377 104.433C93.9472 101.665 93.9424 98.8062 92.8488 95.9762C92.561 95.9474 69.9352 56.7156 63.9634 46.609C62.6107 44.3162 61.6945 41.9467 61.6993 39.2606C61.7089 27.2737 61.6993 14.6825 61.7041 2.6909" fill="#E4F5F8"/>
<path d="M40.7908 55.3581C47.5685 54.9888 48.0817 66.448 40.0377 65.3639C34.3441 64.5965 34.9101 55.6795 40.7908 55.3581Z" fill="#1893B4"/>
<path d="M50.3025 41.4095C52.8303 43.0643 51.4537 47.8562 47.8178 47.5684C42.0043 47.1127 44.7911 37.8072 50.3025 41.4095Z" fill="#1893B4"/>
<path d="M42.3833 33.1257C40.834 31.0344 43.9806 28.5785 45.5779 30.454C47.6117 32.8427 43.995 35.2986 42.3833 33.1257Z" fill="#1893B4"/>
<path d="M11.3729 111.1C35.0012 111.114 58.6295 111.129 82.253 111.086C87.1024 111.076 90.6088 108.74 92.6426 104.433C93.952 101.665 93.9472 98.8061 92.8536 95.9761C92.6905 95.9617 85.3996 83.4328 78.008 70.7121C77.9072 70.597 77.8065 70.4723 77.7058 70.3572C67.1819 58.2792 59.1044 71.1582 50.3169 75.9453C42.8581 80.008 33.8308 81.3463 25.9403 77.5474C21.7145 75.5136 18.0162 70.0502 13.493 74.0506C9.50697 80.8331 5.52575 87.6107 1.54453 94.398C-2.83002 101.857 2.59979 111.095 11.3681 111.1H11.3729Z" fill="#1893B4"/>
<path d="M62.2078 0H31.4469C29.5925 0 28.0892 1.50327 28.0892 3.35766V4.05317C28.0892 5.90755 29.5925 7.41083 31.4469 7.41083H62.2078C64.0622 7.41083 65.5655 5.90755 65.5655 4.05317V3.35766C65.5655 1.50327 64.0622 0 62.2078 0Z" fill="#E4F5F8"/>
</g>
<path d="M302 95V58H312.836V72.959H313.382L325.388 58H338.017L324.53 74.4766L338.329 95H325.388L316.422 81.125L312.836 85.4609V95H302Z" fill="#1893B4"/>
<path d="M353.167 58V95H342.33V58H353.167Z" fill="#1893B4"/>
<path d="M358.308 66.0938V58H393V66.0938H380.994V95H370.314V66.0938H358.308Z" fill="#1893B4"/>
<path d="M217 64.25V58H226.091V64.25H217Z" fill="#3E3B3B"/>
<path d="M98 65.2302V58H130.159V65.2302H118.622V94.8345H109.556V65.2302H98Z" fill="#3E3B3B"/>
<path d="M144.898 95.3561C141.913 95.3561 139.336 94.7866 137.169 93.6475C135.014 92.4964 133.354 90.8597 132.19 88.7374C131.038 86.6031 130.462 84.0671 130.462 81.1295C130.462 78.2758 131.044 75.7818 132.209 73.6475C133.373 71.5012 135.014 69.8345 137.132 68.6475C139.25 67.4484 141.745 66.8489 144.619 66.8489C146.65 66.8489 148.508 67.1547 150.192 67.7662C151.877 68.3777 153.332 69.283 154.558 70.482C155.784 71.681 156.738 73.1619 157.419 74.9245C158.101 76.6751 158.441 78.6834 158.441 80.9496V83.1439H133.639V78.036H149.988C149.976 77.1007 149.746 76.2674 149.301 75.536C148.855 74.8045 148.242 74.235 147.461 73.8273C146.693 73.4077 145.808 73.1978 144.805 73.1978C143.789 73.1978 142.879 73.4197 142.074 73.8633C141.269 74.295 140.631 74.8885 140.16 75.6439C139.689 76.3873 139.442 77.2326 139.417 78.1799V83.3777C139.417 84.5048 139.646 85.494 140.104 86.3453C140.563 87.1846 141.213 87.8381 142.055 88.3057C142.897 88.7734 143.901 89.0072 145.065 89.0072C145.87 89.0072 146.601 88.8993 147.257 88.6834C147.913 88.4676 148.477 88.1499 148.948 87.7302C149.418 87.3105 149.771 86.795 150.007 86.1835L158.348 86.4173C158.001 88.2278 157.24 89.8046 156.063 91.1475C154.899 92.4784 153.369 93.5156 151.474 94.259C149.579 94.9904 147.387 95.3561 144.898 95.3561Z" fill="#3E3B3B"/>
<path d="M189.041 75.6439L180.699 75.8597C180.613 75.2842 180.377 74.7746 179.993 74.3309C179.609 73.8753 179.108 73.5216 178.488 73.2698C177.882 73.006 177.176 72.8741 176.37 72.8741C175.318 72.8741 174.42 73.0779 173.677 73.4856C172.946 73.8933 172.587 74.4448 172.599 75.1403C172.587 75.6798 172.81 76.1475 173.268 76.5432C173.739 76.9388 174.575 77.2566 175.776 77.4964L181.275 78.5036C184.124 79.0312 186.242 79.9065 187.629 81.1295C189.029 82.3525 189.734 83.9712 189.747 85.9856C189.734 87.8801 189.152 89.5288 188.001 90.9316C186.861 92.3345 185.3 93.4257 183.319 94.205C181.337 94.9724 179.071 95.3561 176.519 95.3561C172.444 95.3561 169.23 94.5468 166.877 92.9281C164.536 91.2974 163.198 89.1151 162.864 86.3813L171.837 86.1655C172.036 87.1727 172.55 87.94 173.379 88.4676C174.209 88.9952 175.268 89.259 176.556 89.259C177.721 89.259 178.668 89.0492 179.399 88.6295C180.13 88.2098 180.501 87.6523 180.513 86.9568C180.501 86.3333 180.216 85.8357 179.659 85.464C179.102 85.0803 178.228 84.7806 177.039 84.5647L172.06 83.6475C169.199 83.1439 167.069 82.2146 165.669 80.8597C164.27 79.4928 163.576 77.7542 163.589 75.6439C163.576 73.7974 164.084 72.2206 165.112 70.9137C166.14 69.5947 167.602 68.5875 169.497 67.8921C171.392 67.1966 173.627 66.8489 176.203 66.8489C180.068 66.8489 183.114 67.6343 185.344 69.205C187.573 70.7638 188.806 72.9101 189.041 75.6439Z" fill="#3E3B3B"/>
<path d="M211.373 67.2086V73.6834H193.371V67.2086H211.373ZM197.142 60.5899L206.487 58L206.227 86.1475C206.227 86.687 206.314 87.1247 206.487 87.4604C206.673 87.7842 206.939 88.018 207.286 88.1619C207.633 88.2938 208.048 88.3597 208.531 88.3597C208.878 88.3597 209.243 88.3297 209.627 88.2698C210.023 88.1978 210.321 88.1379 210.519 88.0899L211.893 94.4388C211.46 94.5588 210.847 94.7086 210.054 94.8885C209.274 95.0683 208.339 95.1823 207.249 95.2302C205.119 95.3261 203.292 95.0863 201.768 94.5108C200.257 93.9233 199.099 93.012 198.294 91.777C197.502 90.542 197.118 88.9892 197.142 87.1187V60.5899Z" fill="#3E3B3B"/>
<path d="M217.055 94.8345V67.2086H226.14V94.8345H217.055Z" fill="#3E3B3B"/>
<path d="M242.053 79.0791V94.8345H232.969V67.2086H241.607V72.2806H241.923C242.555 70.5899 243.632 69.265 245.156 68.3058C246.679 67.3345 248.494 66.8489 250.599 66.8489C252.606 66.8489 254.346 67.2866 255.82 68.1619C257.306 69.0252 258.458 70.2362 259.275 71.795C260.105 73.3417 260.514 75.1523 260.502 77.2266V94.8345H251.417V78.9532C251.429 77.4185 251.027 76.2194 250.209 75.3561C249.404 74.4928 248.283 74.0611 246.847 74.0611C245.893 74.0611 245.051 74.265 244.32 74.6727C243.601 75.0683 243.044 75.6379 242.648 76.3813C242.264 77.1247 242.066 78.024 242.053 79.0791Z" fill="#3E3B3B"/>
<path d="M280.475 105.77C277.762 105.77 275.44 105.404 273.508 104.673C271.576 103.941 270.058 102.94 268.956 101.669C267.854 100.398 267.191 98.9592 266.968 97.3525L275.57 96.8849C275.731 97.4484 276.028 97.94 276.462 98.3597C276.908 98.7794 277.483 99.1031 278.189 99.3309C278.908 99.5587 279.75 99.6727 280.716 99.6727C282.239 99.6727 283.497 99.3129 284.487 98.5935C285.491 97.8861 285.992 96.6451 285.992 94.8705V90.0144H285.676C285.317 90.8657 284.772 91.6271 284.042 92.2986C283.311 92.97 282.4 93.4976 281.311 93.8813C280.233 94.265 278.994 94.4568 277.595 94.4568C275.514 94.4568 273.607 93.9892 271.873 93.054C270.151 92.1067 268.77 90.6439 267.73 88.6655C266.702 86.6751 266.188 84.1151 266.188 80.9856C266.188 77.7602 266.72 75.1043 267.786 73.018C268.851 70.9197 270.244 69.3669 271.966 68.3597C273.7 67.3525 275.564 66.8489 277.558 66.8489C279.056 66.8489 280.338 67.1007 281.403 67.6043C282.481 68.0959 283.367 68.7314 284.06 69.5108C284.754 70.2902 285.28 71.0995 285.639 71.9388H285.899V67.2086H294.947V94.9424C294.947 97.2806 294.34 99.253 293.126 100.86C291.913 102.466 290.216 103.683 288.036 104.511C285.856 105.35 283.336 105.77 280.475 105.77ZM280.753 88.054C281.856 88.054 282.797 87.7722 283.577 87.2086C284.357 86.6451 284.958 85.8357 285.379 84.7806C285.8 83.7254 286.011 82.4604 286.011 80.9856C286.011 79.4868 285.8 78.1978 285.379 77.1187C284.97 76.0276 284.37 75.1882 283.577 74.6007C282.797 74.0132 281.856 73.7194 280.753 73.7194C279.626 73.7194 278.672 74.0192 277.892 74.6187C277.112 75.2182 276.517 76.0635 276.109 77.1547C275.712 78.2338 275.514 79.5108 275.514 80.9856C275.514 82.4604 275.719 83.7254 276.127 84.7806C276.536 85.8357 277.124 86.6451 277.892 87.2086C278.672 87.7722 279.626 88.054 280.753 88.054Z" fill="#3E3B3B"/>
<path d="M107.884 49.8345H98L110.838 13H123.081L135.918 49.8345H126.035L117.098 22.2806H116.801L107.884 49.8345ZM106.565 35.3381H127.224V42.1007H106.565V35.3381Z" fill="#3E3B3B"/>
<path d="M159.472 37.9101V22.2086H168.538V49.8345H159.881V44.6906H159.584C158.952 46.3813 157.875 47.7242 156.351 48.7194C154.84 49.7026 153.013 50.1942 150.87 50.1942C148.926 50.1942 147.217 49.7626 145.743 48.8993C144.269 48.036 143.123 46.8309 142.306 45.2842C141.488 43.7254 141.074 41.9029 141.061 39.8165V22.2086H150.146V38.0899C150.158 39.5887 150.567 40.7698 151.372 41.6331C152.177 42.4964 153.273 42.9281 154.66 42.9281C155.565 42.9281 156.376 42.7362 157.094 42.3525C157.825 41.9568 158.401 41.3873 158.822 40.6439C159.255 39.8885 159.472 38.9772 159.472 37.9101Z" fill="#3E3B3B"/>
<path d="M191.475 22.2086V28.6835H173.472V22.2086H191.475ZM177.244 15.5899L186.589 13L186.328 41.1475C186.328 41.6871 186.415 42.1247 186.589 42.4604C186.774 42.7842 187.041 43.018 187.387 43.1619C187.734 43.2938 188.149 43.3597 188.632 43.3597C188.979 43.3597 189.344 43.3297 189.728 43.2698C190.125 43.1978 190.422 43.1379 190.62 43.0899L191.995 49.4389C191.561 49.5588 190.948 49.7086 190.156 49.8885C189.375 50.0683 188.44 50.1823 187.35 50.2302C185.22 50.3261 183.393 50.0863 181.87 49.5108C180.359 48.9233 179.201 48.012 178.396 46.777C177.603 45.542 177.219 43.9892 177.244 42.1187V15.5899Z" fill="#3E3B3B"/>
<path d="M210.17 50.3561C207.173 50.3561 204.597 49.7626 202.442 48.5755C200.299 47.3765 198.646 45.7098 197.481 43.5755C196.33 41.4293 195.754 38.9412 195.754 36.1115C195.754 33.2698 196.33 30.7818 197.481 28.6475C198.646 26.5012 200.299 24.8345 202.442 23.6475C204.597 22.4484 207.173 21.8489 210.17 21.8489C213.168 21.8489 215.738 22.4484 217.88 23.6475C220.035 24.8345 221.689 26.5012 222.841 28.6475C224.005 30.7818 224.587 33.2698 224.587 36.1115C224.587 38.9412 224.005 41.4293 222.841 43.5755C221.689 45.7098 220.035 47.3765 217.88 48.5755C215.738 49.7626 213.168 50.3561 210.17 50.3561ZM210.226 43.7194C211.316 43.7194 212.239 43.3957 212.994 42.7482C213.75 42.1007 214.326 41.2014 214.722 40.0504C215.131 38.8993 215.335 37.5683 215.335 36.0576C215.335 34.5228 215.131 33.1799 214.722 32.0288C214.326 30.8777 213.75 29.9784 212.994 29.3309C212.239 28.6835 211.316 28.3597 210.226 28.3597C209.099 28.3597 208.145 28.6835 207.365 29.3309C206.597 29.9784 206.009 30.8777 205.6 32.0288C205.204 33.1799 205.006 34.5228 205.006 36.0576C205.006 37.5683 205.204 38.8993 205.6 40.0504C206.009 41.2014 206.597 42.1007 207.365 42.7482C208.145 43.3957 209.099 43.7194 210.226 43.7194Z" fill="#3E3B3B"/>
<path d="M230.287 49.8345V22.2086H238.926V27.2806H239.242C239.837 25.6019 240.84 24.277 242.252 23.3058C243.664 22.3345 245.348 21.8489 247.305 21.8489C249.287 21.8489 250.984 22.3405 252.395 23.3237C253.807 24.307 254.705 25.6259 255.089 27.2806H255.387C255.919 25.6379 256.96 24.3249 258.508 23.3417C260.056 22.3465 261.883 21.8489 263.988 21.8489C266.688 21.8489 268.881 22.6883 270.565 24.3669C272.249 26.0336 273.092 28.3237 273.092 31.2374V49.8345H264.007V33.2518C264.007 31.8729 263.642 30.8237 262.911 30.1043C262.18 29.3729 261.233 29.0072 260.068 29.0072C258.817 29.0072 257.833 29.4029 257.114 30.1942C256.408 30.9736 256.055 32.0228 256.055 33.3417V49.8345H247.324V33.1619C247.324 31.8789 246.964 30.8657 246.246 30.1223C245.528 29.3789 244.58 29.0072 243.404 29.0072C242.611 29.0072 241.911 29.193 241.304 29.5647C240.697 29.9245 240.221 30.44 239.874 31.1115C239.539 31.783 239.372 32.5743 239.372 33.4856V49.8345H230.287Z" fill="#3E3B3B"/>
<path d="M287.812 50.3022C285.991 50.3022 284.375 50.0084 282.963 49.4209C281.563 48.8213 280.455 47.9221 279.637 46.723C278.832 45.512 278.43 43.9952 278.43 42.1727C278.43 40.6379 278.708 39.3429 279.266 38.2878C279.823 37.2326 280.591 36.3753 281.569 35.7158C282.548 35.0564 283.675 34.5588 284.951 34.223C286.226 33.8753 287.589 33.6415 289.038 33.5216C290.66 33.3777 291.967 33.2278 292.958 33.0719C293.949 32.9041 294.667 32.6703 295.113 32.3705C295.571 32.0588 295.8 31.6211 295.8 31.0576V30.9676C295.8 30.0444 295.472 29.3309 294.816 28.8273C294.159 28.3237 293.274 28.0719 292.159 28.0719C290.958 28.0719 289.992 28.3237 289.261 28.8273C288.53 29.3309 288.066 30.0264 287.867 30.9137L279.489 30.6259C279.736 28.9472 280.374 27.4484 281.402 26.1295C282.443 24.7986 283.867 23.7554 285.675 23C287.496 22.2326 289.682 21.8489 292.233 21.8489C294.054 21.8489 295.732 22.0588 297.268 22.4784C298.804 22.8861 300.141 23.4856 301.281 24.277C302.42 25.0564 303.3 26.0156 303.919 27.1547C304.551 28.2938 304.867 29.5947 304.867 31.0576V49.8345H296.321V45.9856H296.098C295.59 46.9209 294.94 47.7122 294.147 48.3597C293.367 49.0072 292.444 49.4928 291.379 49.8165C290.326 50.1403 289.137 50.3022 287.812 50.3022ZM290.617 44.5468C291.595 44.5468 292.475 44.3549 293.255 43.9712C294.048 43.5875 294.679 43.06 295.15 42.3885C295.621 41.705 295.856 40.9137 295.856 40.0144V37.3885C295.596 37.5204 295.28 37.6403 294.909 37.7482C294.549 37.8561 294.153 37.958 293.72 38.054C293.286 38.1499 292.84 38.2338 292.382 38.3058C291.924 38.3777 291.484 38.4436 291.063 38.5036C290.208 38.6355 289.478 38.8393 288.871 39.1151C288.276 39.3909 287.818 39.7506 287.496 40.1942C287.186 40.6259 287.031 41.1415 287.031 41.741C287.031 42.6523 287.366 43.3477 288.035 43.8273C288.716 44.307 289.577 44.5468 290.617 44.5468Z" fill="#3E3B3B"/>
<path d="M327.575 22.2086V28.6835H309.573V22.2086H327.575ZM313.344 15.5899H322.429V41.1475C322.429 41.6871 322.516 42.1247 322.689 42.4604C322.875 42.7842 323.141 43.018 323.488 43.1619C323.835 43.2938 324.25 43.3597 324.733 43.3597C325.079 43.3597 325.445 43.3297 325.829 43.2698C326.225 43.1978 326.522 43.1379 326.721 43.0899L328.095 49.4389C327.662 49.5588 327.049 49.7086 326.256 49.8885C325.476 50.0683 324.541 50.1823 323.451 50.2302C321.32 50.3261 319.494 50.0863 317.97 49.5108C316.459 48.9233 315.301 48.012 314.496 46.777C313.703 45.542 313.319 43.9892 313.344 42.1187V15.5899Z" fill="#3E3B3B"/>
<path d="M346.289 50.3561C343.305 50.3561 340.728 49.7866 338.561 48.6475C336.406 47.4964 334.746 45.8597 333.582 43.7374C332.43 41.6031 331.854 39.0671 331.854 36.1295C331.854 33.2758 332.436 30.7818 333.6 28.6475C334.765 26.5012 336.406 24.8345 338.524 23.6475C340.642 22.4484 343.137 21.8489 346.011 21.8489C348.042 21.8489 349.9 22.1547 351.584 22.7662C353.269 23.3777 354.724 24.283 355.95 25.482C357.176 26.6811 358.13 28.1619 358.811 29.9245C359.492 31.6751 359.833 33.6835 359.833 35.9496V38.1439H335.031V33.036H351.38C351.367 32.1007 351.138 31.2674 350.693 30.536C350.247 29.8046 349.634 29.235 348.853 28.8273C348.085 28.4077 347.2 28.1978 346.197 28.1978C345.181 28.1978 344.271 28.4197 343.466 28.8633C342.661 29.295 342.023 29.8885 341.552 30.6439C341.081 31.3873 340.834 32.2326 340.809 33.1799V38.3777C340.809 39.5048 341.038 40.494 341.496 41.3453C341.955 42.1847 342.605 42.8381 343.447 43.3058C344.289 43.7734 345.292 44.0072 346.457 44.0072C347.262 44.0072 347.992 43.8993 348.649 43.6835C349.305 43.4676 349.869 43.1499 350.34 42.7302C350.81 42.3106 351.163 41.795 351.398 41.1835L359.74 41.4173C359.393 43.2278 358.632 44.8046 357.455 46.1475C356.291 47.4784 354.761 48.5156 352.866 49.259C350.971 49.9904 348.779 50.3561 346.289 50.3561Z" fill="#3E3B3B"/>
<path d="M375.942 50.2302C373.836 50.2302 371.923 49.7026 370.201 48.6475C368.479 47.5923 367.105 46.0096 366.077 43.8993C365.049 41.789 364.535 39.1691 364.535 36.0396C364.535 32.7902 365.067 30.1163 366.132 28.018C367.198 25.9197 368.591 24.3669 370.312 23.3597C372.046 22.3525 373.91 21.8489 375.905 21.8489C377.403 21.8489 378.685 22.1007 379.75 22.6043C380.815 23.0959 381.695 23.7314 382.388 24.5108C383.082 25.2902 383.608 26.0995 383.968 26.9388H384.153V13H393.238V49.8345H384.246V45.3561H383.968C383.584 46.2074 383.039 47.0048 382.333 47.7482C381.627 48.4916 380.741 49.0911 379.676 49.5468C378.623 50.0024 377.378 50.2302 375.942 50.2302ZM379.1 43.3777C380.202 43.3777 381.144 43.0779 381.924 42.4784C382.704 41.8669 383.305 41.0096 383.726 39.9065C384.147 38.8034 384.358 37.5084 384.358 36.0216C384.358 34.5108 384.147 33.2098 383.726 32.1187C383.317 31.0276 382.717 30.1883 381.924 29.6007C381.144 29.0132 380.202 28.7194 379.1 28.7194C377.973 28.7194 377.019 29.0192 376.239 29.6187C375.459 30.2182 374.864 31.0635 374.455 32.1547C374.059 33.2458 373.861 34.5348 373.861 36.0216C373.861 37.5084 374.065 38.8034 374.474 39.9065C374.883 41.0096 375.471 41.8669 376.239 42.4784C377.019 43.0779 377.973 43.3777 379.1 43.3777Z" fill="#3E3B3B"/>
<defs>
<clipPath id="clip0_73_1049">
<rect width="93.6498" height="111.119" fill="white"/>
</clipPath>
</defs>
</svg>
